<?xml version="1.0" encoding="UTF-8"?>
<svg width="33px" height="33px" viewBox="0 0 33 33" version="1.1" xmlns="http://www.w3.org/2000/svg" xmlns:xlink="http://www.w3.org/1999/xlink">
    <!-- Generator: Sketch 47 (45396) - http://www.bohemiancoding.com/sketch -->
    <title>Group 27</title>
    <desc>Created with Sketch.</desc>
    <defs>
        <linearGradient x1="50%" y1="0%" x2="50%" y2="100%" id="linearGradient-1">
            <stop stop-color="#E9220C" offset="0%"></stop>
            <stop stop-color="#BD1901" offset="100%"></stop>
        </linearGradient>
    </defs>
    <g id="Page-1" stroke="none" stroke-width="1" fill="none" fill-rule="evenodd">
        <g id="LOGO" transform="translate(0.000000, -8.000000)" fill-rule="nonzero">
            <g id="Group-27" transform="translate(0.000000, 8.000000)">
                <rect id="Rectangle-14-Copy" fill="url(#linearGradient-1)" x="0" y="0" width="33" height="33" rx="2"></rect>
                <g id="Group-4-Copy" transform="translate(5.000000, 3.000000)">
                    <path d="M6.65435606,1.05932203 L4.66619318,1.05932203 C4.51057372,1.05932203 4.39922698,1.09322 4.33214962,1.16101695 C4.26507227,1.2288139 4.23153409,1.33898229 4.23153409,1.49152542 L4.23153409,2.49152542 L6.35653409,2.49152542 L6.35653409,3.43220339 L4.23153409,3.43220339 L4.23153409,5.88983051 L3,5.88983051 L3,1.22881356 C3,0.855930339 3.11134674,0.560735551 3.33404356,0.343220339 C3.55674038,0.125705127 3.85321785,0.0169491525 4.22348485,0.0169491525 C5.40404631,0.0169491525 6.23579304,0.0480222881 6.71875,0.110169492 L6.65435606,1.05932203 Z M11.8783144,0.0423728814 L11.8783144,3.55932203 C11.8783144,4.45198186 11.7159896,5.08191907 11.3913352,5.44915254 C11.0666808,5.81638602 10.5072641,6 9.71306818,6 C8.87594278,6 8.28701244,5.81638602 7.94625947,5.44915254 C7.6055065,5.08191907 7.43513258,4.45198186 7.43513258,3.55932203 L7.43513258,0.0423728814 L8.65861742,0.0423728814 L8.65861742,3.55932203 C8.65861742,4.09604788 8.72971835,4.46327585 8.87192235,4.66101695 C9.01412634,4.85875805 9.27572411,4.95762712 9.65672348,4.95762712 C10.0323567,4.95762712 10.2912714,4.85875805 10.4334754,4.66101695 C10.5756794,4.46327585 10.6467803,4.09604788 10.6467803,3.55932203 L10.6467803,0.0423728814 L11.8783144,0.0423728814 Z M17.641572,0.0423728814 L17.641572,5.42372881 C17.641572,5.73446483 17.4966871,5.88983051 17.2069129,5.88983051 L16.4422348,5.88983051 C16.3188125,5.88983051 16.2222226,5.86016979 16.1524621,5.80084746 C16.0827017,5.74152513 16.0156253,5.64406847 15.9512311,5.50847458 L14.4943182,2.38983051 C14.3118678,1.97739907 14.1991795,1.6751422 14.15625,1.48305085 L14.0677083,1.48305085 C14.1052717,1.76553814 14.124053,2.07626949 14.124053,2.41525424 L14.124053,5.88983051 L12.9569129,5.88983051 L12.9569129,0.508474576 C12.9569129,0.197738559 13.1044808,0.0423728814 13.3996212,0.0423728814 L14.1482008,0.0423728814 C14.2716231,0.0423728814 14.368213,0.0720336017 14.4379735,0.131355932 C14.5077339,0.190678263 14.5748103,0.288134915 14.6392045,0.423728814 L16.047822,3.44915254 C16.1819767,3.73163983 16.3161294,4.04519602 16.4502841,4.38983051 L16.5307765,4.38983051 C16.4985794,3.94915034 16.4824811,3.62147 16.4824811,3.40677966 L16.4824811,0.0423728814 L17.641572,0.0423728814 Z M20,2.28813559 L19.8792614,4.03389831 L18.9455492,4.03389831 L18.8167614,2.28813559 L18.8167614,0 L20,0 L20,2.28813559 Z M19.2755682,4.61016949 L19.5492424,4.61016949 C19.7048619,4.61016949 19.8135256,4.64124263 19.8752367,4.70338983 C19.9369479,4.76553703 19.967803,4.87853025 19.967803,5.04237288 L19.967803,5.44915254 C19.967803,5.61299517 19.9369479,5.72740081 19.8752367,5.79237288 C19.8135256,5.85734496 19.7048619,5.88983051 19.5492424,5.88983051 L19.2755682,5.88983051 C19.1199487,5.88983051 19.011285,5.85734496 18.9495739,5.79237288 C18.8878627,5.72740081 18.8570076,5.61299517 18.8570076,5.44915254 L18.8570076,5.04237288 C18.8570076,4.87853025 18.8878627,4.76553703 18.9495739,4.70338983 C19.011285,4.64124263 19.1199487,4.61016949 19.2755682,4.61016949 Z" id="FUN!" fill="#FFFFFF"></path>
                    <path d="M2.25130163,21.0759494 L2.25130163,25.6751055 C2.25130163,26.0970485 2.14219709,26.4233462 1.92398473,26.6540084 C1.70577237,26.8846706 1.39974743,27 1.00590073,27 C0.564153756,27 0.228856866,26.9437418 0,26.8312236 L0.135716765,25.9704641 L0.510933704,25.9704641 C0.862202381,25.9704641 1.03783409,25.8213798 1.03783409,25.5232068 L1.03783409,21.0759494 L2.25130163,21.0759494 Z M6.33078792,25.371308 L4.43873655,25.371308 L4.03956959,26.8987342 L2.79416869,26.8987342 L4.38285318,21.4135021 C4.40414219,21.3122358 4.45470283,21.2306614 4.53453662,21.1687764 C4.61437041,21.1068914 4.70484735,21.0759494 4.80597015,21.0759494 L5.95557098,21.0759494 C6.18442785,21.0759494 6.32546543,21.1884658 6.37868796,21.4135021 L7.96737244,26.8987342 L6.72995488,26.8987342 L6.33078792,25.371308 Z M6.06733773,24.3755274 L5.60430406,22.5949367 C5.54043703,22.3136414 5.50318182,22.1308021 5.49253731,22.0464135 L5.27698716,22.0464135 C5.26634265,22.1026726 5.24771505,22.1926857 5.22110378,22.3164557 C5.19449252,22.4402257 5.17320383,22.5330517 5.15723707,22.5949367 L4.6942034,24.3755274 L6.06733773,24.3755274 Z M8.53418952,26.8987342 L8.53418952,21.0759494 C9.02915902,21.0253162 9.72636366,21 10.6258244,21 C11.397551,21 11.9257767,21.1322068 12.2105172,21.3966245 C12.4952577,21.6610421 12.6376258,22.1617403 12.6376258,22.8987342 C12.6376258,23.635728 12.503241,24.1378327 12.2344672,24.4050633 C11.9656934,24.6722939 11.4827063,24.8059072 10.7854911,24.8059072 C10.4342225,24.8059072 10.0882812,24.7834039 9.74765706,24.7383966 L9.74765706,26.8987342 L8.53418952,26.8987342 Z M9.74765706,23.8185654 L10.6018743,23.8185654 C10.9158873,23.8129395 11.1301047,23.7482425 11.2445331,23.6244726 C11.3589616,23.5007026 11.4161749,23.2587922 11.4161749,22.8987342 C11.4161749,22.5386761 11.3589616,22.2967657 11.2445331,22.1729958 C11.1301047,22.0492258 10.9158873,21.9873418 10.6018743,21.9873418 L9.74765706,21.9957806 L9.74765706,23.8185654 Z M16.150295,25.371308 L14.2582437,25.371308 L13.8590767,26.8987342 L12.6136758,26.8987342 L14.2023603,21.4135021 C14.2236493,21.3122358 14.2742099,21.2306614 14.3540437,21.1687764 C14.4338775,21.1068914 14.5243545,21.0759494 14.6254773,21.0759494 L15.7750781,21.0759494 C16.003935,21.0759494 16.1449725,21.1884658 16.1981951,21.4135021 L17.7868796,26.8987342 L16.549462,26.8987342 L16.150295,25.371308 Z M15.8868448,24.3755274 L15.4238112,22.5949367 C15.3599441,22.3136414 15.3226889,22.1308021 15.3120444,22.0464135 L15.0964943,22.0464135 C15.0858498,22.1026726 15.0672222,22.1926857 15.0406109,22.3164557 C15.0139996,22.4402257 14.9927109,22.5330517 14.9767442,22.5949367 L14.5137105,24.3755274 L15.8868448,24.3755274 Z M23,21.0759494 L23,26.4345992 C23,26.7440241 22.8563013,26.8987342 22.5688997,26.8987342 L21.8104825,26.8987342 C21.6880707,26.8987342 21.5922715,26.8691986 21.5230823,26.8101266 C21.453893,26.7510546 21.3873658,26.6540091 21.3234988,26.5189873 L19.8785144,23.4135021 C19.6975578,23.0028109 19.5857922,22.7018294 19.5432142,22.5105485 L19.4553974,22.5105485 C19.4926532,22.7918439 19.5112808,23.1012641 19.5112808,23.4388186 L19.5112808,26.8987342 L18.3536966,26.8987342 L18.3536966,21.5400844 C18.3536966,21.2306595 18.5000564,21.0759494 18.7927803,21.0759494 L19.5352308,21.0759494 C19.6576426,21.0759494 19.7534417,21.1054849 19.822631,21.164557 C19.8918203,21.223629 19.9583475,21.3206744 20.0222145,21.4556962 L21.4192989,24.4683544 C21.5523552,24.7496498 21.6854095,25.061883 21.8184658,25.4050633 L21.8982992,25.4050633 C21.8663657,24.9662425 21.8503992,24.6399448 21.8503992,24.4261603 L21.8503992,21.0759494 L23,21.0759494 Z" id="JAPAN" fill="#FFFFFF"></path>
                    <g id="Group-24" transform="translate(6.000000, 8.000000)">
                        <circle id="Oval-23" fill="#FFFFFF" cx="5.4912" cy="5.4912" r="5.4912"></circle>
                        <g id="Group-23" transform="translate(1.830400, 2.745600)" fill="#FB3A3A">
                            <g id="Group-23-Copy" transform="translate(4.118400, 0.000000)">
                                <path d="M3.2032,1.6016 L0,1.6016 C0,0.717060745 0.717060745,0 1.6016,0 C2.48613926,0 3.2032,0.717060745 3.2032,1.6016 Z M2.7456,1.6016 C2.7456,0.969786246 2.23341375,0.4576 1.6016,0.4576 C0.969786246,0.4576 0.4576,0.969786246 0.4576,1.6016 L2.7456,1.6016 Z" id="Combined-Shape"></path>
                                <path d="M0.22866421,1.83012842 C0.354951966,1.83012842 0.45732842,1.72775197 0.45732842,1.60146421 C0.45732842,1.47517645 0.354951966,1.3728 0.22866421,1.3728 C0.102376454,1.3728 0,1.47517645 0,1.60146421 C0,1.72775197 0.102376454,1.83012842 0.22866421,1.83012842 Z" id="Oval-26"></path>
                                <path d="M2.97213107,1.82586213 C3.09724072,1.82586213 3.19866213,1.72444072 3.19866213,1.59933107 C3.19866213,1.47422141 3.09724072,1.3728 2.97213107,1.3728 C2.84702141,1.3728 2.7456,1.47422141 2.7456,1.59933107 C2.7456,1.72444072 2.84702141,1.82586213 2.97213107,1.82586213 Z" id="Oval-26-Copy"></path>
                            </g>
                            <g id="Group-23-Copy-2">
                                <path d="M3.2032,1.6016 L0,1.6016 C0,0.717060745 0.717060745,0 1.6016,0 C2.48613926,0 3.2032,0.717060745 3.2032,1.6016 Z M2.7456,1.6016 C2.7456,0.969786246 2.23341375,0.4576 1.6016,0.4576 C0.969786246,0.4576 0.4576,0.969786246 0.4576,1.6016 L2.7456,1.6016 Z" id="Combined-Shape"></path>
                                <path d="M0.22866421,1.83012842 C0.354951966,1.83012842 0.45732842,1.72775197 0.45732842,1.60146421 C0.45732842,1.47517645 0.354951966,1.3728 0.22866421,1.3728 C0.102376454,1.3728 0,1.47517645 0,1.60146421 C0,1.72775197 0.102376454,1.83012842 0.22866421,1.83012842 Z" id="Oval-26"></path>
                                <path d="M2.97213107,1.82586213 C3.09724072,1.82586213 3.19866213,1.72444072 3.19866213,1.59933107 C3.19866213,1.47422141 3.09724072,1.3728 2.97213107,1.3728 C2.84702141,1.3728 2.7456,1.47422141 2.7456,1.59933107 C2.7456,1.72444072 2.84702141,1.82586213 2.97213107,1.82586213 Z" id="Oval-26-Copy"></path>
                            </g>
                        </g>
                        <path d="M5.4912,9.48203925 C7.87097695,9.48203925 8.9232,8.11395937 8.9232,6.73643925 C8.9232,6.51336639 7.20783256,6.19033103 5.4912,6.1919 C3.77583303,6.19346781 2.0592,6.51947768 2.0592,6.73643925 C2.0592,8.12172382 3.11142305,9.48203925 5.4912,9.48203925 Z" id="Oval-24" fill="#DA1F09"></path>
                    </g>
                </g>
            </g>
        </g>
    </g>
</svg>